<?xml version="1.0" encoding="UTF-8" standalone="no"?>
<!DOCTYPE svg PUBLIC "-//W3C//DTD SVG 1.1//EN" "http://www.w3.org/Graphics/SVG/1.1/DTD/svg11.dtd">
<svg width="100%" height="100%" viewBox="0 0 3400 1000" version="1.1" xmlns="http://www.w3.org/2000/svg" xmlns:xlink="http://www.w3.org/1999/xlink" xml:space="preserve" xmlns:serif="http://www.serif.com/" style="fill-rule:evenodd;clip-rule:evenodd;stroke-linejoin:round;stroke-miterlimit:1.41421;">
    <g id="Layer-1" serif:id="Layer 1" transform="matrix(3.66283,0,0,3.66283,-4991.69,-11800.2)">
        <g transform="matrix(-1.09e-05,248.764,248.764,1.09e-05,1572.01,3233.66)">
            <path d="M0.5,-0.5C0.682,-0.5 0.842,-0.403 0.929,-0.257C0.881,-0.257 0.837,-0.257 0.785,-0.257C0.78,-0.257 0.777,-0.257 0.776,-0.264C0.764,-0.329 0.723,-0.37 0.656,-0.381C0.638,-0.384 0.62,-0.384 0.602,-0.385C0.593,-0.385 0.59,-0.385 0.582,-0.385C0.569,-0.385 0.555,-0.375 0.549,-0.361C0.544,-0.349 0.545,-0.337 0.553,-0.326C0.561,-0.315 0.573,-0.31 0.587,-0.312C0.61,-0.315 0.633,-0.315 0.656,-0.308C0.681,-0.301 0.698,-0.285 0.704,-0.258C0.701,-0.257 0.699,-0.257 0.696,-0.257C0.675,-0.257 0.653,-0.257 0.632,-0.257C0.623,-0.257 0.596,-0.257 0.588,-0.257C0.563,-0.257 0.537,-0.257 0.512,-0.257C0.459,-0.257 0.421,-0.224 0.412,-0.172C0.412,-0.17 0.412,-0.168 0.411,-0.165C0.407,-0.164 0.403,-0.156 0.401,-0.164C0.398,-0.17 0.387,-0.181 0.381,-0.185C0.373,-0.189 0.368,-0.196 0.36,-0.2C0.351,-0.204 0.343,-0.207 0.334,-0.21C0.31,-0.22 0.288,-0.212 0.268,-0.198C0.261,-0.192 0.249,-0.19 0.24,-0.189C0.227,-0.189 0.222,-0.198 0.216,-0.209C0.213,-0.207 0.213,-0.2 0.213,-0.193C0.213,-0.188 0.213,-0.184 0.212,-0.181C0.208,-0.172 0.203,-0.162 0.208,-0.152C0.212,-0.142 0.217,-0.135 0.227,-0.128C0.24,-0.12 0.252,-0.123 0.267,-0.122C0.278,-0.121 0.286,-0.111 0.296,-0.107C0.306,-0.103 0.316,-0.1 0.326,-0.099C0.348,-0.095 0.371,-0.091 0.391,-0.083C0.436,-0.068 0.453,-0.028 0.467,0.013C0.474,0.034 0.481,0.059 0.484,0.081C0.487,0.108 0.492,0.136 0.487,0.163C0.49,0.162 0.493,0.133 0.493,0.115C0.493,0.096 0.493,0.096 0.49,0.06C0.487,0.032 0.477,0.005 0.469,-0.022C0.464,-0.039 0.489,-0.02 0.494,-0.017C0.508,-0.008 0.52,0.004 0.532,0.015C0.544,0.027 0.556,0.039 0.568,0.051C0.578,0.061 0.588,0.076 0.6,0.086C0.604,0.082 0.575,0.049 0.571,0.045C0.556,0.029 0.541,0.014 0.526,-0.001C0.511,-0.016 0.495,-0.031 0.48,-0.047C0.48,-0.047 0.45,-0.079 0.451,-0.078C0.455,-0.075 0.456,-0.072 0.465,-0.068C0.473,-0.065 0.48,-0.065 0.482,-0.065C0.494,-0.064 0.506,-0.063 0.518,-0.063C0.55,-0.063 0.582,-0.063 0.614,-0.063C0.617,-0.063 0.637,-0.063 0.643,-0.063C0.661,-0.063 0.678,-0.063 0.696,-0.063L0.705,-0.063C0.702,-0.05 0.696,-0.041 0.685,-0.036C0.675,-0.032 0.665,-0.029 0.654,-0.027C0.648,-0.026 0.641,-0.026 0.634,-0.025C0.618,-0.023 0.605,-0.01 0.604,0.007C0.603,0.023 0.613,0.039 0.628,0.044C0.637,0.047 0.653,0.045 0.656,0.045C0.676,0.043 0.696,0.039 0.714,0.03C0.749,0.012 0.769,-0.017 0.777,-0.055C0.778,-0.061 0.78,-0.063 0.786,-0.063C0.856,-0.063 0.926,-0.063 0.996,-0.063C0.999,-0.043 1,-0.021 1,0C1,0.276 0.776,0.5 0.5,0.5C0.224,0.5 0,0.276 0,0C0,-0.276 0.224,-0.5 0.5,-0.5Z" style="fill:url(#_Linear1);fill-rule:nonzero;"/>
        </g>
        <g transform="matrix(-3.2e-06,72.1191,72.1191,3.2e-06,1803.72,3323)">
            <path d="M0,0.16L0.704,0.16C0.823,0.16 0.888,0.102 0.888,-0.006C0.888,-0.095 0.83,-0.158 0.747,-0.16L0.747,-0.282C0.896,-0.282 1,-0.168 1,-0.005C1,0.175 0.89,0.282 0.705,0.282L0,0.282L0,0.16Z" style="fill:url(#_Linear2);fill-rule:nonzero;"/>
        </g>
        <g transform="matrix(-3.2e-06,72.8027,72.8027,3.2e-06,1867.44,3321.83)">
            <path d="M0.5,-0.446C0.808,-0.446 1,-0.274 1,0C1,0.274 0.808,0.446 0.5,0.446C0.193,0.446 0,0.274 0,0C0,-0.274 0.193,-0.446 0.5,-0.446ZM0.5,-0.322C0.262,-0.322 0.111,-0.198 0.111,0C0.111,0.198 0.262,0.322 0.5,0.322C0.738,0.322 0.889,0.198 0.889,0C0.889,-0.198 0.738,-0.322 0.5,-0.322Z" style="fill:url(#_Linear3);fill-rule:nonzero;"/>
        </g>
        <g transform="matrix(-3.2e-06,72.8027,72.8027,3.2e-06,1933.72,3321.83)">
            <path d="M0.274,-0.333C0.405,-0.333 0.484,-0.254 0.529,-0.075L0.561,0.049C0.595,0.179 0.645,0.236 0.727,0.236C0.822,0.236 0.891,0.141 0.891,0.01C0.891,-0.128 0.822,-0.228 0.718,-0.239L0.718,-0.36C0.889,-0.349 1,-0.207 1,-0.002C1,0.221 0.889,0.361 0.712,0.361C0.573,0.361 0.496,0.279 0.446,0.079L0.419,-0.022C0.385,-0.154 0.341,-0.208 0.268,-0.208C0.174,-0.208 0.109,-0.12 0.109,0.005C0.109,0.131 0.172,0.215 0.276,0.226L0.276,0.346C0.114,0.341 0,0.202 0,0.009C0,-0.192 0.113,-0.333 0.274,-0.333Z" style="fill:url(#_Linear4);fill-rule:nonzero;"/>
        </g>
        <g transform="matrix(-3.1e-06,70.459,70.459,3.1e-06,1992.05,3323)">
            <path d="M0,-0.31L1,-0.31L1,0.31L0.888,0.31L0.888,-0.185L0.544,-0.185L0.544,0.284L0.433,0.284L0.433,-0.185L0.112,-0.185L0.112,0.31L0,0.31L0,-0.31Z" style="fill:url(#_Linear5);fill-rule:nonzero;"/>
        </g>
        <g transform="matrix(-3.2e-06,72.4121,72.4121,3.2e-06,2045.76,3322.03)">
            <path d="M0.257,-0.313C0.376,-0.313 0.447,-0.231 0.492,-0.051L0.521,0.062C0.564,0.234 0.624,0.306 0.732,0.306C0.868,0.306 0.969,0.185 0.969,0.01C0.969,-0.168 0.869,-0.299 0.729,-0.306L0.729,-0.34C0.887,-0.332 1,-0.189 1,0.009C1,0.206 0.887,0.34 0.731,0.34C0.605,0.34 0.534,0.256 0.488,0.071L0.461,-0.04C0.42,-0.204 0.361,-0.279 0.257,-0.279C0.125,-0.279 0.031,-0.154 0.031,-0.002C0.031,0.158 0.122,0.281 0.243,0.287L0.243,0.321C0.106,0.315 0,0.179 0,-0.002C0,-0.171 0.108,-0.313 0.257,-0.313Z" style="fill:url(#_Linear6);fill-rule:nonzero;"/>
        </g>
        <g transform="matrix(-2.3e-06,52.5391,52.5391,2.3e-06,2108.26,3340.92)">
            <path d="M0,0.6L0.949,0.327L0.949,0.325L0,0.031L0,-0.031L0.949,-0.325L0.949,-0.327L0,-0.6L0,-0.652L1,-0.357L1,-0.296L0.056,-0.001L0.056,0.001L1,0.296L1,0.357L0,0.651L0,0.6Z" style="fill:url(#_Linear7);fill-rule:nonzero;"/>
        </g>
        <g transform="matrix(-3.1e-06,71.3867,71.3867,3.1e-06,2150.13,3322.07)">
            <path d="M0.033,-0.033C0.051,-0.033 0.066,-0.018 0.066,0C0.066,0.018 0.051,0.033 0.033,0.033C0.014,0.033 0,0.018 0,0C0,-0.018 0.014,-0.033 0.033,-0.033ZM1,-0.017L1,0.017L0.264,0.017L0.264,-0.017L1,-0.017Z" style="fill:url(#_Linear8);fill-rule:nonzero;"/>
        </g>
        <g transform="matrix(-3.2e-06,72.5098,72.5098,3.2e-06,2169.56,3320.95)">
            <path d="M0.162,-0.05L0.275,-0.05L0.275,-0.151L0.306,-0.151L0.306,-0.05L1,-0.05L1,-0.016L0.306,-0.016L0.306,0.144L0.275,0.144L0.275,-0.016L0.166,-0.016C0.067,-0.016 0.031,0.029 0.031,0.101C0.031,0.12 0.033,0.136 0.038,0.151L0.007,0.151C0.003,0.14 0,0.121 0,0.101C0,0.009 0.048,-0.05 0.162,-0.05Z" style="fill:url(#_Linear9);fill-rule:nonzero;"/>
        </g>
        <g transform="matrix(-2.9e-06,66.6504,66.6504,2.9e-06,2195.32,3326.86)">
            <path d="M0,-0.046L0.211,-0.046L0.211,-0.163L0.244,-0.163L0.244,-0.046L0.828,-0.046C0.951,-0.046 1,0.001 1,0.107C1,0.109 0.999,0.162 0.999,0.163L0.966,0.163C0.966,0.163 0.966,0.11 0.966,0.109C0.966,0.026 0.927,-0.01 0.827,-0.01L0.244,-0.01L0.244,0.149L0.211,0.149L0.211,-0.01L0,-0.01L0,-0.046Z" style="fill:url(#_Linear10);fill-rule:nonzero;"/>
        </g>
    </g>
    <defs>
        <linearGradient id="_Linear1" x1="0" y1="0" x2="1" y2="0" gradientUnits="userSpaceOnUse" gradientTransform="matrix(1,0,0,-1,0,-1.17421e-06)"><stop offset="0" style="stop-color:rgb(244,146,31);stop-opacity:1"/><stop offset="0" style="stop-color:rgb(244,146,31);stop-opacity:1"/><stop offset="1" style="stop-color:rgb(233,49,42);stop-opacity:1"/></linearGradient>
        <linearGradient id="_Linear2" x1="0" y1="0" x2="1" y2="0" gradientUnits="userSpaceOnUse" gradientTransform="matrix(1,0,0,-1,-7.10543e-15,6.8603e-06)"><stop offset="0" style="stop-color:rgb(244,146,31);stop-opacity:1"/><stop offset="0" style="stop-color:rgb(244,146,31);stop-opacity:1"/><stop offset="1" style="stop-color:rgb(233,49,42);stop-opacity:1"/></linearGradient>
        <linearGradient id="_Linear3" x1="0" y1="0" x2="1" y2="0" gradientUnits="userSpaceOnUse" gradientTransform="matrix(1,0,0,-1,7.10543e-15,-1.3324e-06)"><stop offset="0" style="stop-color:rgb(244,146,31);stop-opacity:1"/><stop offset="0" style="stop-color:rgb(244,146,31);stop-opacity:1"/><stop offset="1" style="stop-color:rgb(233,49,42);stop-opacity:1"/></linearGradient>
        <linearGradient id="_Linear4" x1="0" y1="0" x2="1" y2="0" gradientUnits="userSpaceOnUse" gradientTransform="matrix(1,0,0,-1,0,3.57758e-06)"><stop offset="0" style="stop-color:rgb(244,146,31);stop-opacity:1"/><stop offset="0" style="stop-color:rgb(244,146,31);stop-opacity:1"/><stop offset="1" style="stop-color:rgb(233,49,42);stop-opacity:1"/></linearGradient>
        <linearGradient id="_Linear5" x1="0" y1="0" x2="1" y2="0" gradientUnits="userSpaceOnUse" gradientTransform="matrix(1,-6.61744e-24,-6.61744e-24,-1,0,9.26922e-06)"><stop offset="0" style="stop-color:rgb(244,146,31);stop-opacity:1"/><stop offset="0" style="stop-color:rgb(244,146,31);stop-opacity:1"/><stop offset="1" style="stop-color:rgb(233,49,42);stop-opacity:1"/></linearGradient>
        <linearGradient id="_Linear6" x1="0" y1="0" x2="1" y2="0" gradientUnits="userSpaceOnUse" gradientTransform="matrix(1,-6.61744e-24,-6.61744e-24,-1,0,-6.54545e-06)"><stop offset="0" style="stop-color:rgb(244,146,31);stop-opacity:1"/><stop offset="0" style="stop-color:rgb(244,146,31);stop-opacity:1"/><stop offset="1" style="stop-color:rgb(233,49,42);stop-opacity:1"/></linearGradient>
        <linearGradient id="_Linear7" x1="0" y1="0" x2="1" y2="0" gradientUnits="userSpaceOnUse" gradientTransform="matrix(1,0,0,-1,0,-8.92289e-06)"><stop offset="0" style="stop-color:rgb(244,146,31);stop-opacity:1"/><stop offset="0" style="stop-color:rgb(244,146,31);stop-opacity:1"/><stop offset="1" style="stop-color:rgb(233,49,42);stop-opacity:1"/></linearGradient>
        <linearGradient id="_Linear8" x1="0" y1="0" x2="1" y2="0" gradientUnits="userSpaceOnUse" gradientTransform="matrix(1,0,0,-1,0,1.07219e-05)"><stop offset="0" style="stop-color:rgb(244,146,31);stop-opacity:1"/><stop offset="0" style="stop-color:rgb(244,146,31);stop-opacity:1"/><stop offset="1" style="stop-color:rgb(233,49,42);stop-opacity:1"/></linearGradient>
        <linearGradient id="_Linear9" x1="0" y1="0" x2="1" y2="0" gradientUnits="userSpaceOnUse" gradientTransform="matrix(1,0,0,-1,-7.10543e-15,-6.5925e-07)"><stop offset="0" style="stop-color:rgb(244,146,31);stop-opacity:1"/><stop offset="0" style="stop-color:rgb(244,146,31);stop-opacity:1"/><stop offset="1" style="stop-color:rgb(233,49,42);stop-opacity:1"/></linearGradient>
        <linearGradient id="_Linear10" x1="0" y1="0" x2="1" y2="0" gradientUnits="userSpaceOnUse" gradientTransform="matrix(1,0,0,-1,0,9.32463e-06)"><stop offset="0" style="stop-color:rgb(244,146,31);stop-opacity:1"/><stop offset="0" style="stop-color:rgb(244,146,31);stop-opacity:1"/><stop offset="1" style="stop-color:rgb(233,49,42);stop-opacity:1"/></linearGradient>
    </defs>
</svg>
