<?xml version="1.0" encoding="UTF-8" standalone="no"?>
<!DOCTYPE svg PUBLIC "-//W3C//DTD SVG 1.1//EN" "http://www.w3.org/Graphics/SVG/1.1/DTD/svg11.dtd">
<svg width="100%" height="100%" viewBox="0 0 3400 1000" version="1.1" xmlns="http://www.w3.org/2000/svg" xmlns:xlink="http://www.w3.org/1999/xlink" xml:space="preserve" xmlns:serif="http://www.serif.com/" style="fill-rule:evenodd;clip-rule:evenodd;stroke-miterlimit:10;">
    <g transform="matrix(0.825725,0,0,0.825725,1700,3703.11)">
        <g transform="matrix(1,0,0,1,-7612.15,-10110.5)">
            <g id="Page-1" serif:id="Page 1" transform="matrix(4.16667,0,0,4.16667,0,0)">
                <rect x="0" y="0" width="3653.83" height="4853.03" style="fill:none;"/>
                <g id="Layer-1" serif:id="Layer 1">
                    <g transform="matrix(0,-1,-1,-0,1572,1370.62)">
                        <ellipse cx="-124.381" cy="-0.001" rx="124.382" ry="124.381" style="fill:none;stroke:url(#_Linear1);stroke-width:8px;"/>
                    </g>
                    <g transform="matrix(-1.09e-05,248.764,248.764,1.09e-05,1516.66,1370.42)">
                        <path d="M0.213,0.042C0.214,0.039 0.214,0.034 0.214,0.029C0.214,0.023 0.214,0.016 0.217,0.014C0.223,0.024 0.227,0.034 0.241,0.033C0.25,0.033 0.261,0.03 0.269,0.025C0.288,0.011 0.311,0.003 0.335,0.012C0.344,0.016 0.352,0.018 0.361,0.023C0.368,0.027 0.374,0.034 0.382,0.038C0.388,0.041 0.399,0.052 0.401,0.059C0.404,0.067 0.408,0.058 0.412,0.057C0.412,0.055 0.413,0.053 0.413,0.051C0.422,-0.001 0.46,-0.034 0.513,-0.035C0.538,-0.035 0.564,-0.034 0.589,-0.035C0.596,-0.035 0.624,-0.034 0.633,-0.034C0.654,-0.035 0.676,-0.035 0.697,-0.035C0.7,-0.035 0.702,-0.035 0.705,-0.035C0.699,-0.063 0.682,-0.078 0.657,-0.086C0.634,-0.092 0.611,-0.092 0.588,-0.089C0.574,-0.088 0.562,-0.092 0.554,-0.104C0.546,-0.114 0.545,-0.127 0.55,-0.139C0.556,-0.153 0.57,-0.162 0.583,-0.162C0.591,-0.163 0.593,-0.162 0.602,-0.162C0.621,-0.162 0.639,-0.162 0.657,-0.159C0.723,-0.148 0.765,-0.106 0.777,-0.041C0.778,-0.035 0.781,-0.034 0.786,-0.034C0.838,-0.035 0.882,-0.035 0.929,-0.035C0.964,0.023 0.987,0.089 0.996,0.159C0.926,0.159 0.857,0.159 0.787,0.159C0.781,0.159 0.779,0.161 0.777,0.168C0.77,0.206 0.75,0.235 0.715,0.252C0.697,0.262 0.677,0.265 0.657,0.267C0.654,0.268 0.638,0.269 0.629,0.266C0.613,0.261 0.603,0.246 0.605,0.229C0.606,0.213 0.618,0.2 0.635,0.197C0.642,0.196 0.649,0.197 0.655,0.195C0.665,0.193 0.676,0.191 0.686,0.187C0.696,0.182 0.703,0.172 0.706,0.159L0.697,0.159C0.679,0.159 0.662,0.159 0.644,0.159C0.637,0.16 0.618,0.16 0.615,0.16C0.583,0.159 0.551,0.16 0.519,0.159C0.507,0.159 0.495,0.159 0.483,0.158C0.481,0.158 0.473,0.157 0.466,0.154C0.457,0.15 0.456,0.147 0.452,0.144C0.451,0.144 0.48,0.176 0.48,0.176C0.496,0.191 0.511,0.206 0.527,0.221C0.542,0.237 0.557,0.252 0.572,0.268C0.575,0.272 0.605,0.304 0.601,0.308C0.589,0.298 0.579,0.284 0.568,0.273C0.557,0.261 0.545,0.249 0.533,0.238C0.521,0.227 0.509,0.215 0.495,0.206C0.49,0.202 0.465,0.183 0.47,0.201C0.478,0.228 0.487,0.255 0.49,0.283C0.494,0.319 0.494,0.319 0.494,0.337C0.494,0.356 0.491,0.384 0.488,0.385C0.492,0.359 0.488,0.33 0.485,0.303C0.482,0.281 0.475,0.257 0.468,0.236C0.453,0.195 0.436,0.155 0.392,0.139C0.371,0.132 0.349,0.127 0.327,0.124C0.317,0.122 0.306,0.12 0.297,0.116C0.287,0.111 0.279,0.101 0.268,0.1C0.253,0.1 0.24,0.102 0.228,0.094C0.218,0.088 0.213,0.081 0.209,0.07C0.207,0.068 0.207,0.065 0.207,0.062C0.207,0.055 0.21,0.048 0.213,0.042Z" style="fill:url(#_Linear2);fill-rule:nonzero;"/>
                    </g>
                    <g transform="matrix(-3.2e-06,72.1191,72.1191,3.2e-06,1803.72,1459.96)">
                        <path d="M0,0.16L0.704,0.16C0.823,0.16 0.888,0.102 0.888,-0.006C0.888,-0.095 0.83,-0.158 0.747,-0.16L0.747,-0.282C0.896,-0.282 1,-0.168 1,-0.005C1,0.175 0.89,0.282 0.705,0.282L0,0.282L0,0.16Z" style="fill:url(#_Linear3);fill-rule:nonzero;"/>
                    </g>
                    <g transform="matrix(-3.2e-06,72.8027,72.8027,3.2e-06,1867.44,1458.79)">
                        <path d="M0.5,-0.446C0.808,-0.446 1,-0.274 1,0C1,0.274 0.808,0.446 0.5,0.446C0.193,0.446 0,0.274 0,0C0,-0.274 0.193,-0.446 0.5,-0.446ZM0.5,-0.322C0.262,-0.322 0.111,-0.198 0.111,0C0.111,0.198 0.262,0.322 0.5,0.322C0.738,0.322 0.889,0.198 0.889,0C0.889,-0.198 0.738,-0.322 0.5,-0.322Z" style="fill:url(#_Linear4);fill-rule:nonzero;"/>
                    </g>
                    <g transform="matrix(-3.2e-06,72.8027,72.8027,3.2e-06,1933.72,1458.79)">
                        <path d="M0.274,-0.333C0.405,-0.333 0.484,-0.254 0.529,-0.075L0.561,0.049C0.595,0.179 0.645,0.236 0.727,0.236C0.822,0.236 0.891,0.141 0.891,0.01C0.891,-0.128 0.822,-0.228 0.718,-0.239L0.718,-0.36C0.889,-0.349 1,-0.207 1,-0.002C1,0.221 0.889,0.361 0.712,0.361C0.573,0.361 0.496,0.279 0.446,0.079L0.419,-0.022C0.385,-0.154 0.341,-0.208 0.268,-0.208C0.174,-0.208 0.109,-0.12 0.109,0.005C0.109,0.131 0.172,0.215 0.276,0.226L0.276,0.346C0.114,0.341 0,0.202 0,0.009C0,-0.192 0.113,-0.333 0.274,-0.333Z" style="fill:url(#_Linear5);fill-rule:nonzero;"/>
                    </g>
                    <g transform="matrix(-3.1e-06,70.459,70.459,3.1e-06,1992.05,1459.96)">
                        <path d="M0,-0.31L1,-0.31L1,0.31L0.888,0.31L0.888,-0.185L0.544,-0.185L0.544,0.284L0.433,0.284L0.433,-0.185L0.112,-0.185L0.112,0.31L0,0.31L0,-0.31Z" style="fill:url(#_Linear6);fill-rule:nonzero;"/>
                    </g>
                    <g transform="matrix(-3.2e-06,72.4121,72.4121,3.2e-06,2045.76,1458.99)">
                        <path d="M0.257,-0.313C0.376,-0.313 0.447,-0.231 0.492,-0.051L0.521,0.062C0.564,0.234 0.624,0.306 0.732,0.306C0.868,0.306 0.969,0.185 0.969,0.01C0.969,-0.168 0.869,-0.299 0.729,-0.306L0.729,-0.34C0.887,-0.332 1,-0.189 1,0.009C1,0.206 0.887,0.34 0.731,0.34C0.605,0.34 0.534,0.256 0.488,0.071L0.461,-0.04C0.42,-0.204 0.361,-0.279 0.257,-0.279C0.125,-0.279 0.031,-0.154 0.031,-0.002C0.031,0.158 0.122,0.281 0.243,0.287L0.243,0.321C0.106,0.315 0,0.179 0,-0.002C0,-0.171 0.108,-0.313 0.257,-0.313Z" style="fill:url(#_Linear7);fill-rule:nonzero;"/>
                    </g>
                    <g transform="matrix(-2.3e-06,52.5391,52.5391,2.3e-06,2108.26,1477.88)">
                        <path d="M0,0.6L0.949,0.327L0.949,0.325L0,0.031L0,-0.031L0.949,-0.325L0.949,-0.327L0,-0.6L0,-0.652L1,-0.357L1,-0.296L0.056,-0.001L0.056,0.001L1,0.296L1,0.357L0,0.651L0,0.6Z" style="fill:url(#_Linear8);fill-rule:nonzero;"/>
                    </g>
                    <g transform="matrix(-3.1e-06,71.3867,71.3867,3.1e-06,2150.13,1459.04)">
                        <path d="M0.033,-0.033C0.051,-0.033 0.066,-0.018 0.066,0C0.066,0.018 0.051,0.033 0.033,0.033C0.014,0.033 0,0.018 0,0C0,-0.018 0.014,-0.033 0.033,-0.033ZM1,-0.017L1,0.017L0.264,0.017L0.264,-0.017L1,-0.017Z" style="fill:url(#_Linear9);fill-rule:nonzero;"/>
                    </g>
                    <g transform="matrix(-3.2e-06,72.5098,72.5098,3.2e-06,2169.56,1457.91)">
                        <path d="M0.162,-0.05L0.275,-0.05L0.275,-0.151L0.306,-0.151L0.306,-0.05L1,-0.05L1,-0.016L0.306,-0.016L0.306,0.144L0.275,0.144L0.275,-0.016L0.166,-0.016C0.067,-0.016 0.031,0.029 0.031,0.101C0.031,0.12 0.033,0.136 0.038,0.151L0.007,0.151C0.003,0.14 0,0.121 0,0.101C0,0.009 0.048,-0.05 0.162,-0.05Z" style="fill:url(#_Linear10);fill-rule:nonzero;"/>
                    </g>
                    <g transform="matrix(-2.9e-06,66.6504,66.6504,2.9e-06,2195.32,1463.82)">
                        <path d="M0,-0.046L0.211,-0.046L0.211,-0.163L0.244,-0.163L0.244,-0.046L0.828,-0.046C0.951,-0.046 1,0.001 1,0.107C1,0.109 0.999,0.162 0.999,0.163L0.966,0.163C0.966,0.163 0.966,0.11 0.966,0.109C0.966,0.026 0.927,-0.01 0.827,-0.01L0.244,-0.01L0.244,0.149L0.211,0.149L0.211,-0.01L0,-0.01L0,-0.046Z" style="fill:url(#_Linear11);fill-rule:nonzero;"/>
                    </g>
                </g>
            </g>
        </g>
    </g>
    <defs>
        <linearGradient id="_Linear1" x1="0" y1="0" x2="1" y2="0" gradientUnits="userSpaceOnUse" gradientTransform="matrix(-256.764,1.12235e-05,1.12235e-05,256.764,3.9968,-0.0053)"><stop offset="0" style="stop-color:rgb(244,146,31);stop-opacity:1"/><stop offset="0" style="stop-color:rgb(244,146,31);stop-opacity:1"/><stop offset="1" style="stop-color:rgb(233,49,42);stop-opacity:1"/></linearGradient>
        <linearGradient id="_Linear2" x1="0" y1="0" x2="1" y2="0" gradientUnits="userSpaceOnUse" gradientTransform="matrix(1,0,0,-1,-8.88178e-16,0.222491)"><stop offset="0" style="stop-color:rgb(244,146,31);stop-opacity:1"/><stop offset="0" style="stop-color:rgb(244,146,31);stop-opacity:1"/><stop offset="1" style="stop-color:rgb(233,49,42);stop-opacity:1"/></linearGradient>
        <linearGradient id="_Linear3" x1="0" y1="0" x2="1" y2="0" gradientUnits="userSpaceOnUse" gradientTransform="matrix(1,0,0,-1,3.55271e-15,6.8603e-06)"><stop offset="0" style="stop-color:rgb(244,146,31);stop-opacity:1"/><stop offset="0" style="stop-color:rgb(244,146,31);stop-opacity:1"/><stop offset="1" style="stop-color:rgb(233,49,42);stop-opacity:1"/></linearGradient>
        <linearGradient id="_Linear4" x1="0" y1="0" x2="1" y2="0" gradientUnits="userSpaceOnUse" gradientTransform="matrix(1,0,0,-1,-3.55271e-15,-1.3324e-06)"><stop offset="0" style="stop-color:rgb(244,146,31);stop-opacity:1"/><stop offset="0" style="stop-color:rgb(244,146,31);stop-opacity:1"/><stop offset="1" style="stop-color:rgb(233,49,42);stop-opacity:1"/></linearGradient>
        <linearGradient id="_Linear5" x1="0" y1="0" x2="1" y2="0" gradientUnits="userSpaceOnUse" gradientTransform="matrix(1,0,0,-1,0,3.57758e-06)"><stop offset="0" style="stop-color:rgb(244,146,31);stop-opacity:1"/><stop offset="0" style="stop-color:rgb(244,146,31);stop-opacity:1"/><stop offset="1" style="stop-color:rgb(233,49,42);stop-opacity:1"/></linearGradient>
        <linearGradient id="_Linear6" x1="0" y1="0" x2="1" y2="0" gradientUnits="userSpaceOnUse" gradientTransform="matrix(1,-6.61744e-24,-6.61744e-24,-1,-3.55271e-15,9.26922e-06)"><stop offset="0" style="stop-color:rgb(244,146,31);stop-opacity:1"/><stop offset="0" style="stop-color:rgb(244,146,31);stop-opacity:1"/><stop offset="1" style="stop-color:rgb(233,49,42);stop-opacity:1"/></linearGradient>
        <linearGradient id="_Linear7" x1="0" y1="0" x2="1" y2="0" gradientUnits="userSpaceOnUse" gradientTransform="matrix(1,-6.61744e-24,-6.61744e-24,-1,-3.55271e-15,-6.54545e-06)"><stop offset="0" style="stop-color:rgb(244,146,31);stop-opacity:1"/><stop offset="0" style="stop-color:rgb(244,146,31);stop-opacity:1"/><stop offset="1" style="stop-color:rgb(233,49,42);stop-opacity:1"/></linearGradient>
        <linearGradient id="_Linear8" x1="0" y1="0" x2="1" y2="0" gradientUnits="userSpaceOnUse" gradientTransform="matrix(1,0,0,-1,3.55271e-15,-8.92289e-06)"><stop offset="0" style="stop-color:rgb(244,146,31);stop-opacity:1"/><stop offset="0" style="stop-color:rgb(244,146,31);stop-opacity:1"/><stop offset="1" style="stop-color:rgb(233,49,42);stop-opacity:1"/></linearGradient>
        <linearGradient id="_Linear9" x1="0" y1="0" x2="1" y2="0" gradientUnits="userSpaceOnUse" gradientTransform="matrix(1,0,0,-1,0,1.07219e-05)"><stop offset="0" style="stop-color:rgb(244,146,31);stop-opacity:1"/><stop offset="0" style="stop-color:rgb(244,146,31);stop-opacity:1"/><stop offset="1" style="stop-color:rgb(233,49,42);stop-opacity:1"/></linearGradient>
        <linearGradient id="_Linear10" x1="0" y1="0" x2="1" y2="0" gradientUnits="userSpaceOnUse" gradientTransform="matrix(1,0,0,-1,0,-6.5925e-07)"><stop offset="0" style="stop-color:rgb(244,146,31);stop-opacity:1"/><stop offset="0" style="stop-color:rgb(244,146,31);stop-opacity:1"/><stop offset="1" style="stop-color:rgb(233,49,42);stop-opacity:1"/></linearGradient>
        <linearGradient id="_Linear11" x1="0" y1="0" x2="1" y2="0" gradientUnits="userSpaceOnUse" gradientTransform="matrix(1,0,0,-1,-3.55271e-15,9.32463e-06)"><stop offset="0" style="stop-color:rgb(244,146,31);stop-opacity:1"/><stop offset="0" style="stop-color:rgb(244,146,31);stop-opacity:1"/><stop offset="1" style="stop-color:rgb(233,49,42);stop-opacity:1"/></linearGradient>
    </defs>
</svg>
